<?xml version="1.0" encoding="UTF-8"?>
<svg id="Layer_2" data-name="Layer 2" xmlns="http://www.w3.org/2000/svg" xmlns:xlink="http://www.w3.org/1999/xlink" viewBox="0 0 1000 1000">
  <defs>
    <style>
      .cls-1 {
        fill: url(#linear-gradient-2);
      }

      .cls-2 {
        stroke: #000;
        stroke-miterlimit: 10;
        stroke-width: .5px;
      }

      .cls-3 {
        fill: url(#linear-gradient);
      }
    </style>
    <linearGradient id="linear-gradient" x1="274" y1="178.23" x2="274" y2="860.01" gradientTransform="translate(1000) rotate(-180) scale(1 -1)" gradientUnits="userSpaceOnUse">
      <stop offset=".07" stop-color="#ff3f75"/>
      <stop offset=".62" stop-color="#ff0031"/>
    </linearGradient>
    <linearGradient id="linear-gradient-2" x1="274" y1="178.23" x2="274" y2="860.01" gradientTransform="matrix(1, 0, 0, 1, 0, 0)" xlink:href="#linear-gradient"/>
  </defs>
  <g>
    <polygon class="cls-3" points="500 209 810 209 952 356 609.67 860 500 860 500 209"/>
    <path class="cls-2" d="m500,187.5l304.81,1.94c6.83.04,13.35,2.86,18.06,7.81l146.39,153.71c3.63,3.81,4.07,9.66,1.06,13.97l-351.78,503.79c-2.53,3.63-6.68,5.79-11.1,5.79h-107.44v-30.99l101.2-.04,327.11-488.11c.89-1.33-.01-3.12-1.61-3.2l-52.72-2.54c-1.12-.05-1.77-1.28-1.18-2.24l19.12-31.27c.64-1.05.51-2.4-.33-3.31l-81.84-88.08c-2.6-2.79-6.24-4.37-10.06-4.36l-201.11.84c-21.71.09-43,6.03-61.61,17.2l-36.97,22.17v-73.09Z"/>
    <path class="cls-2" d="m784.64,259.97l-174.98,129.03,128.08-30,29.25-44,10.08,36.37c29.14-21,35.85-49.98,7.57-91.4Z"/>
    <path class="cls-2" d="m500,467.06l149.81-41.65c2.67-.74,5.53.04,7.46,2.02,19.3,19.85,15.68,75.05,15.1,126.55-.01.97,1.32,1.25,1.71.37l65.42-148.62c.93-2.12,2.87-3.64,5.15-4.04l94.76-16.61c1.63-.29,2.82,1.5,1.94,2.9l-273.31,430.33c-.52.82-1.78.47-1.81-.5l-1.85-64.75c-.02-.63-.84-.87-1.19-.34l-42.32,63.96c-.55.83-1.47,1.33-2.46,1.34l-18.41.12v-351.08Z"/>
  </g>
  <g>
    <polygon class="cls-1" points="500 209 190 209 48 356 390.33 860 500 860 500 209"/>
    <path class="cls-2" d="m500,187.5l-304.81,1.94c-6.83.04-13.35,2.86-18.06,7.81L30.74,350.95c-3.63,3.81-4.07,9.66-1.06,13.97l351.78,503.79c2.53,3.63,6.68,5.79,11.1,5.79h107.44v-30.99l-101.2-.04L71.69,355.35c-.89-1.33.01-3.12,1.61-3.2l52.72-2.54c1.12-.05,1.77-1.28,1.18-2.24l-19.12-31.27c-.64-1.05-.51-2.4.33-3.31l81.84-88.08c2.6-2.79,6.24-4.37,10.06-4.36l201.11.84c21.71.09,43,6.03,61.61,17.2l36.97,22.17v-73.09Z"/>
    <path class="cls-2" d="m215.36,259.97l174.98,129.03-128.08-30-29.25-44-10.08,36.37c-29.14-21-35.85-49.98-7.57-91.4Z"/>
    <path class="cls-2" d="m500,467.06l-149.81-41.65c-2.67-.74-5.53.04-7.46,2.02-19.3,19.85-15.68,75.05-15.1,126.55.01.97-1.32,1.25-1.71.37l-65.42-148.62c-.93-2.12-2.87-3.64-5.15-4.04l-94.76-16.61c-1.63-.29-2.82,1.5-1.94,2.9l273.31,430.33c.52.82,1.78.47,1.81-.5l1.85-64.75c.02-.63.84-.87,1.19-.34l42.32,63.96c.55.83,1.47,1.33,2.46,1.34l18.41.12v-351.08Z"/>
  </g>
</svg>
