<?xml version="1.0" encoding="UTF-8"?>
<svg id="Layer_1" data-name="Layer 1" xmlns="http://www.w3.org/2000/svg" xmlns:xlink="http://www.w3.org/1999/xlink" viewBox="0 0 904.83 277.33">
  <defs>
    <style>
      .cls-1 {
        fill: url(#linear-gradient-2);
      }

      .cls-2 {
        fill: #fff;
      }

      .cls-3 {
        fill: url(#linear-gradient-6);
      }

      .cls-4 {
        clip-path: url(#clippath-2);
      }

      .cls-5 {
        clip-path: url(#clippath-1);
      }

      .cls-6 {
        fill: url(#linear-gradient-10);
      }

      .cls-7 {
        fill: url(#linear-gradient-5);
      }

      .cls-8 {
        clip-path: url(#clippath);
      }

      .cls-9, .cls-10 {
        fill: none;
      }

      .cls-11 {
        fill: url(#linear-gradient-7);
      }

      .cls-12 {
        fill: url(#linear-gradient-9);
      }

      .cls-13 {
        fill: url(#linear-gradient-3);
      }

      .cls-14 {
        fill: url(#linear-gradient);
      }

      .cls-15 {
        fill: url(#linear-gradient-4);
      }

      .cls-16 {
        fill: url(#linear-gradient-8);
      }

      .cls-10 {
        stroke: #000;
        stroke-miterlimit: 10;
        stroke-width: .09px;
      }
    </style>
    <clipPath id="clippath">
      <rect class="cls-9" x="78.83" y="50.33" width="185" height="185"/>
    </clipPath>
    <clipPath id="clippath-1">
      <polygon class="cls-9" points="227.2 87.15 114.21 87.15 87.94 114.34 151.27 207.58 191.68 207.66 255.69 115.82 227.2 87.15"/>
    </clipPath>
    <linearGradient id="linear-gradient" x1="-88.44" y1="-380.02" x2="-88.25" y2="-380.02" gradientTransform="translate(259423.27 60414.52) rotate(90) scale(682.21 -682.21)" gradientUnits="userSpaceOnUse">
      <stop offset="0" stop-color="#ff3f75"/>
      <stop offset=".07" stop-color="#ff3f75"/>
      <stop offset=".62" stop-color="#ff0031"/>
      <stop offset="1" stop-color="#ff0031"/>
    </linearGradient>
    <clipPath id="clippath-2">
      <rect class="cls-9" x="78.83" y="50.33" width="185" height="185"/>
    </clipPath>
    <linearGradient id="linear-gradient-2" x1="360.95" y1="123.16" x2="360.95" y2="168.2" gradientUnits="userSpaceOnUse">
      <stop offset="0" stop-color="#333" stop-opacity=".7"/>
      <stop offset=".23" stop-color="#212121" stop-opacity=".8"/>
      <stop offset=".67" stop-color="#080808" stop-opacity=".95"/>
      <stop offset="1" stop-color="#000"/>
    </linearGradient>
    <linearGradient id="linear-gradient-3" x1="404.16" y1="116.4" x2="404.16" y2="247.02" xlink:href="#linear-gradient-2"/>
    <linearGradient id="linear-gradient-4" x1="471.72" x2="471.72" xlink:href="#linear-gradient-2"/>
    <linearGradient id="linear-gradient-5" x1="514.62" y1="64.53" x2="514.62" y2="210.1" xlink:href="#linear-gradient-2"/>
    <linearGradient id="linear-gradient-6" x1="530.19" y1="110.76" x2="530.19" y2="207.23" xlink:href="#linear-gradient-2"/>
    <linearGradient id="linear-gradient-7" x1="567.23" y1="145.34" x2="567.23" y2="165.03" xlink:href="#linear-gradient-2"/>
    <linearGradient id="linear-gradient-8" x1="610.37" y1="123.16" x2="610.37" y2="169.33" xlink:href="#linear-gradient-2"/>
    <linearGradient id="linear-gradient-9" x1="647.47" y1="115.62" x2="647.47" y2="168.66" xlink:href="#linear-gradient-2"/>
    <linearGradient id="linear-gradient-10" x1="687.62" y1="115.89" x2="687.62" y2="246.04" xlink:href="#linear-gradient-2"/>
  </defs>
  <g class="cls-8">
    <g class="cls-5">
      <rect class="cls-14" x="87.94" y="87.15" width="167.75" height="120.51"/>
    </g>
    <g class="cls-4">
      <path d="m171.33,85.02l56.39.36c1.26,0,2.47.53,3.34,1.44l27.08,28.44c.67.71.75,1.79.2,2.59l-65.08,93.2c-.47.67-1.24,1.07-2.05,1.07h-19.88v-5.73h18.72s60.51-90.31,60.51-90.31c.16-.25,0-.58-.3-.59l-9.75-.47c-.21,0-.33-.24-.22-.41l3.54-5.79c.12-.19.09-.44-.06-.61l-15.14-16.29c-.48-.52-1.15-.81-1.86-.81l-37.2.16c-4.02.02-7.95,1.12-11.4,3.18l-6.84,4.1v-13.52Z"/>
      <path class="cls-10" d="m171.33,85.02l56.39.36c1.26,0,2.47.53,3.34,1.44l27.08,28.44c.67.71.75,1.79.2,2.59l-65.08,93.2c-.47.67-1.24,1.07-2.05,1.07h-19.88v-5.73h18.72s60.51-90.31,60.51-90.31c.16-.25,0-.58-.3-.59l-9.75-.47c-.21,0-.33-.24-.22-.41l3.54-5.79c.12-.19.09-.44-.06-.61l-15.14-16.29c-.48-.52-1.15-.81-1.86-.81l-37.2.16c-4.02.02-7.95,1.12-11.4,3.18l-6.84,4.1v-13.52Z"/>
      <path d="m223.99,98.43l-32.37,23.87,23.7-5.55,5.41-8.14,1.86,6.73c5.39-3.88,6.63-9.25,1.4-16.91"/>
      <path class="cls-10" d="m223.99,98.43l-32.37,23.87,23.7-5.55,5.41-8.14,1.86,6.73c5.39-3.88,6.63-9.25,1.4-16.91Z"/>
      <path d="m168.8,137.41l30.24-8.37c.49-.14,1.02,0,1.38.37,3.57,3.67,2.9,13.89,2.79,23.41,0,.18.24.23.32.07l12.1-27.49c.17-.39.53-.67.95-.75l17.53-3.07c.3-.05.52.28.36.54l-50.56,79.61c-.1.15-.33.09-.33-.09l-.34-11.98c0-.12-.16-.16-.22-.06l-7.83,11.83c-.1.15-.27.25-.46.25l-4.72-.02-1.22-64.24Z"/>
      <path class="cls-10" d="m168.8,137.41l30.24-8.37c.49-.14,1.02,0,1.38.37,3.57,3.67,2.9,13.89,2.79,23.41,0,.18.24.23.32.07l12.1-27.49c.17-.39.53-.67.95-.75l17.53-3.07c.3-.05.52.28.36.54l-50.56,79.61c-.1.15-.33.09-.33-.09l-.34-11.98c0-.12-.16-.16-.22-.06l-7.83,11.83c-.1.15-.27.25-.46.25l-4.72-.02-1.22-64.24Z"/>
      <path d="m171.33,85.02l-56.39.36c-1.26,0-2.47.53-3.34,1.44l-27.08,28.44c-.67.71-.75,1.79-.2,2.59l65.08,93.2c.47.67,1.24,1.07,2.05,1.07h19.88v-5.73h-18.72s-60.51-90.31-60.51-90.31c-.16-.25,0-.58.3-.59l9.75-.47c.21,0,.33-.24.22-.41l-3.54-5.79c-.12-.19-.09-.44.06-.61l15.14-16.29c.48-.52,1.15-.81,1.86-.81l37.2.16c4.02.02,7.95,1.12,11.4,3.18l6.84,4.1v-13.52Z"/>
      <path class="cls-10" d="m171.33,85.02l-56.39.36c-1.26,0-2.47.53-3.34,1.44l-27.08,28.44c-.67.71-.75,1.79-.2,2.59l65.08,93.2c.47.67,1.24,1.07,2.05,1.07h19.88v-5.73h-18.72s-60.51-90.31-60.51-90.31c-.16-.25,0-.58.3-.59l9.75-.47c.21,0,.33-.24.22-.41l-3.54-5.79c-.12-.19-.09-.44.06-.61l15.14-16.29c.48-.52,1.15-.81,1.86-.81l37.2.16c4.02.02,7.95,1.12,11.4,3.18l6.84,4.1v-13.52Z"/>
      <path d="m118.67,98.43l32.37,23.87-23.7-5.55-5.41-8.14-1.86,6.73c-5.39-3.88-6.63-9.25-1.4-16.91"/>
      <path class="cls-10" d="m118.67,98.43l32.37,23.87-23.7-5.55-5.41-8.14-1.86,6.73c-5.39-3.88-6.63-9.25-1.4-16.91Z"/>
      <path d="m173.86,137.41l-30.24-8.37c-.49-.14-1.02,0-1.38.37-3.57,3.67-2.9,13.89-2.79,23.41,0,.18-.24.23-.32.07l-12.1-27.49c-.17-.39-.53-.67-.95-.75l-17.53-3.07c-.3-.05-.52.28-.36.54l50.56,79.61c.1.15.33.09.33-.09l.34-11.98c0-.12.16-.16.22-.06l7.83,11.83c.1.15.27.25.46.25l4.72-.02,1.22-64.24Z"/>
      <path class="cls-10" d="m173.86,137.41l-30.24-8.37c-.49-.14-1.02,0-1.38.37-3.57,3.67-2.9,13.89-2.79,23.41,0,.18-.24.23-.32.07l-12.1-27.49c-.17-.39-.53-.67-.95-.75l-17.53-3.07c-.3-.05-.52.28-.36.54l50.56,79.61c.1.15.33.09.33-.09l.34-11.98c0-.12.16-.16.22-.06l7.83,11.83c.1.15.27.25.46.25l4.72-.02,1.22-64.24Z"/>
    </g>
  </g>
  <g>
    <g>
      <path class="cls-2" d="m391.61,137.6c1.77,0,3.55,1.84,3.55,3.58,0,1.27-.71,2.55-1.73,3.57-4.53,4.48-19.76,18.45-29.39,18.45-3.43,0-6.15-1.77-7.43-6.37-.57-2.04-.01-8.35-1.95-8.35-1.56,0-4.01,3.34-4.8,4.18-2.98,3.16-11.62,10.34-17.49,10.34-3.41,0-5.66-3.05-5.66-7.52,0-8.99,8.92-23.29,18.69-23.29,4.6,0,7.06,3.62,8.91,3.62,3.06,0,4.68-7.66,8.45-7.66,2.18,0,3.59,1.96,3.59,3.98,0,6.04-3.11,11-3.11,18.14,0,2.26.08,5.24,2.23,5.24,8.01,0,17.4-11.08,22.17-15.85,1.12-1.12,2.52-2.06,3.95-2.06Zm-57.02,15.67c0,.56.14.88.72.88,3.01,0,13.06-8.99,13.06-11.83,0-1.14-1.54-1.87-3.14-1.87-4.53,0-10.63,8.02-10.63,12.82Z"/>
      <path class="cls-1" d="m362.77,128.16c2.18,0,3.59,1.96,3.59,3.98,0,6.04-3.11,11-3.11,18.14,0,2.26.08,5.24,2.23,5.24,8.01,0,17.4-11.08,22.17-15.85,1.12-1.12,2.52-2.06,3.95-2.06,1.77,0,3.55,1.84,3.55,3.58,0,1.27-.71,2.55-1.73,3.57-4.53,4.48-19.76,18.45-29.39,18.45-3.43,0-6.15-1.77-7.43-6.37-.57-2.04-.01-8.35-1.95-8.35-1.56,0-4.01,3.34-4.8,4.18-2.98,3.16-11.62,10.34-17.49,10.34-3.41,0-5.66-3.05-5.66-7.52,0-8.99,8.92-23.29,18.69-23.29,4.6,0,7.06,3.62,8.91,3.62,3.06,0,4.68-7.66,8.45-7.66m-27.46,25.99c3.01,0,13.06-8.99,13.06-11.83,0-1.14-1.54-1.87-3.14-1.87-4.53,0-10.63,8.02-10.63,12.82,0,.56.14.88.72.88m27.46-30.99c-4.68,0-7.2,3.84-8.86,6.38-.07.1-.14.21-.21.32-1.85-1.19-4.59-2.66-8.28-2.66-13.08,0-23.69,17.12-23.69,28.29,0,7.25,4.48,12.52,10.66,12.52,7.35,0,15.73-6.87,19.33-10.18.03.12.06.24.09.36,1.77,6.36,6.23,10.02,12.24,10.02,11.88,0,28.19-15.23,32.91-19.9,2.08-2.08,3.21-4.6,3.21-7.13,0-4.49-4.08-8.58-8.55-8.58-2.6,0-5.19,1.22-7.5,3.54-.65.65-1.4,1.43-2.22,2.28-3.34,3.48-9.04,9.42-13.64,11.42.06-2.87.75-5.41,1.47-8.1.8-2.97,1.63-6.04,1.63-9.6,0-4.95-3.86-8.98-8.59-8.98h0Zm-28.19,26.09h0s0,0,0,0h0Z"/>
    </g>
    <g>
      <path class="cls-2" d="m392.11,133.12c1.87,0,3.67,1.4,3.67,3.93,0,2.3-.89,5.16-.89,7.37,0,4.28,1.43,7.41,5.36,7.41,13.87,0,17.86-16.61,21.98-25.41.83-1.76,2.41-5.02,4.7-5.02,3.19,0,3.81,4.15,3.81,7.77,0,14.71-5.17,38.68-5.17,41.37,0,1.56.41,1.99,1.36,1.99s3.03-.61,5.37-.61c3.07,0,4.58,1.76,4.58,3.58,0,1.45-.97,2.93-2.88,3.57-6.67,2.2-10.4-1.55-13.12,8.71-.99,3.72-1.58,7.68-2.59,11.56-4.07,15.38-13.83,42.68-33.28,42.68-9.03,0-13.55-6.64-13.55-16.3,0-23.72,19.57-41.34,37.92-48.34,9.8-3.68,10.87-23.66,10.87-26.77,0-.78-.09-1.66-.37-1.66-.52,0-10.02,11.02-19.72,11.02-7.59,0-12.95-6.62-12.95-16,0-2.83.43-5.03,1-7.47.59-2.31,2.28-3.38,3.91-3.38Zm19.52,51.17c-8.96,0-32.66,23.45-32.66,40.52,0,5.43,2.2,9.4,6.17,9.4,16.52,0,28.45-37.32,28.45-47.25,0-1.95-.77-2.68-1.95-2.68Z"/>
      <path class="cls-13" d="m426.94,121.4c3.19,0,3.81,4.15,3.81,7.77,0,14.71-5.17,38.68-5.17,41.37,0,1.56.41,1.99,1.36,1.99s3.03-.61,5.37-.61c3.07,0,4.58,1.76,4.58,3.58,0,1.45-.97,2.93-2.88,3.57-6.67,2.2-10.4-1.55-13.12,8.71-.99,3.72-1.58,7.68-2.59,11.56-4.07,15.38-13.83,42.68-33.28,42.68-9.03,0-13.55-6.64-13.55-16.3,0-23.72,19.57-41.34,37.92-48.34,9.8-3.68,10.87-23.66,10.87-26.77,0-.78-.09-1.66-.37-1.66-.52,0-10.02,11.02-19.72,11.02-7.59,0-12.95-6.62-12.95-16,0-2.83.43-5.03,1-7.47.59-2.31,2.28-3.38,3.91-3.38,1.87,0,3.67,1.4,3.67,3.93,0,2.3-.89,5.16-.89,7.37,0,4.28,1.43,7.41,5.36,7.41,13.87,0,17.86-16.61,21.98-25.41.83-1.76,2.41-5.02,4.7-5.02m-41.79,112.81c16.52,0,28.45-37.32,28.45-47.25,0-1.95-.77-2.68-1.95-2.68-8.96,0-32.66,23.45-32.66,40.52,0,5.43,2.2,9.4,6.17,9.4m41.79-117.81c-5.51,0-8.11,5.53-9.22,7.89-.74,1.59-1.45,3.33-2.2,5.17-4,9.84-7.66,17.37-15.26,17.37-.02,0-.03,0-.05,0-.13-.35-.32-1.11-.32-2.41,0-.66.18-1.73.36-2.76.25-1.41.52-3.02.52-4.61,0-5.01-3.81-8.93-8.67-8.93-4.14,0-7.66,2.87-8.76,7.13v.05s-.02.05-.02.05c-.7,2.97-1.14,5.45-1.14,8.62,0,12.17,7.55,21,17.95,21,5.2,0,10.1-2.3,14.06-4.92-1.15,5.7-3.29,11.41-6.59,12.65-20.5,7.81-41.16,27.23-41.16,53.02,0,12.94,7.28,21.3,18.55,21.3,10.37,0,19.34-6.04,26.66-17.95,4.56-7.42,8.42-17,11.45-28.45.54-2.06.95-4.09,1.36-6.05.4-1.93.77-3.76,1.23-5.5.86-3.24,1.57-3.84,1.58-3.84.25-.12,1.28-.21,2.04-.27,1.58-.13,3.75-.31,6.23-1.13,3.84-1.28,6.32-4.54,6.32-8.32,0-4.16-3.36-8.58-9.58-8.58-.4,0-.8.01-1.18.04.15-.91.32-1.91.49-2.9,1.54-9.04,4.13-24.16,4.13-34.89,0-11.53-6.16-12.77-8.81-12.77h0Zm-41.79,112.81c-.07,0-.1,0-.1,0-.27-.17-1.07-1.55-1.07-4.39,0-6.3,4.38-15.03,11.72-23.36,4.88-5.54,9.43-9.03,12.49-10.78-.91,5.2-3.34,13.54-7.13,21.49-5.1,10.68-11.05,17.05-15.91,17.05h0Z"/>
    </g>
    <g>
      <path class="cls-2" d="m502.39,137.6c1.77,0,3.55,1.84,3.55,3.58,0,1.27-.71,2.55-1.73,3.57-4.53,4.48-19.76,18.45-29.39,18.45-3.43,0-6.15-1.77-7.43-6.37-.57-2.04-.01-8.35-1.95-8.35-1.56,0-4.01,3.34-4.8,4.18-2.98,3.16-11.62,10.34-17.49,10.34-3.41,0-5.66-3.05-5.66-7.52,0-8.99,8.92-23.29,18.69-23.29,4.6,0,7.06,3.62,8.91,3.62,3.06,0,4.68-7.66,8.45-7.66,2.18,0,3.59,1.96,3.59,3.98,0,6.04-3.11,11-3.11,18.14,0,2.26.08,5.24,2.23,5.24,8.01,0,17.4-11.08,22.17-15.85,1.12-1.12,2.53-2.06,3.95-2.06Zm-57.02,15.67c0,.56.14.88.72.88,3.01,0,13.06-8.99,13.06-11.83,0-1.14-1.54-1.87-3.14-1.87-4.53,0-10.63,8.02-10.63,12.82Z"/>
      <path class="cls-15" d="m473.55,128.16c2.18,0,3.59,1.96,3.59,3.98,0,6.04-3.11,11-3.11,18.14,0,2.26.08,5.24,2.23,5.24,8.01,0,17.4-11.08,22.17-15.85,1.12-1.12,2.53-2.06,3.95-2.06,1.77,0,3.55,1.84,3.55,3.58,0,1.27-.71,2.55-1.73,3.57-4.53,4.48-19.76,18.45-29.39,18.45-3.43,0-6.15-1.77-7.43-6.37-.57-2.04-.01-8.35-1.95-8.35-1.56,0-4.01,3.34-4.8,4.18-2.98,3.16-11.62,10.34-17.49,10.34-3.41,0-5.66-3.05-5.66-7.52,0-8.99,8.92-23.29,18.69-23.29,4.6,0,7.06,3.62,8.91,3.62,3.06,0,4.68-7.66,8.45-7.66m-27.46,25.99c3.01,0,13.06-8.99,13.06-11.83,0-1.14-1.54-1.87-3.14-1.87-4.53,0-10.63,8.02-10.63,12.82,0,.56.14.88.72.88m27.46-30.99c-4.68,0-7.2,3.84-8.86,6.38-.07.1-.14.21-.21.32-1.85-1.19-4.59-2.66-8.28-2.66-13.08,0-23.69,17.12-23.69,28.29,0,7.25,4.48,12.52,10.66,12.52,7.35,0,15.73-6.88,19.33-10.18.03.12.06.24.09.36,1.77,6.36,6.23,10.02,12.24,10.02,11.88,0,28.19-15.23,32.91-19.9,2.08-2.08,3.21-4.6,3.21-7.13,0-4.49-4.08-8.58-8.55-8.58-2.6,0-5.19,1.22-7.49,3.54-.65.65-1.4,1.43-2.22,2.28-3.34,3.48-9.04,9.42-13.64,11.42.06-2.87.75-5.41,1.47-8.1.8-2.97,1.63-6.04,1.63-9.6,0-4.95-3.86-8.98-8.59-8.98h0Zm-28.19,26.09h0s0,0,0,0h0Z"/>
    </g>
    <g>
      <path class="cls-2" d="m555.68,86.68c0,1.69-1.59,3.47-4.91,4.04-6.92,1.19-34.09.65-36.32,5.49-2.25,4.9-5.62,29.43-6.8,36.8-3.04,19.06-7.28,44.76-7.28,58.99,0,2.77.32,5.63.32,8.48,0,2.39-.75,4.62-3.44,4.62-4.39,0-4.54-5.54-4.54-8.79v-1.17c0-28.35,13.61-92.07,13.61-95.78,0-2.57-2.23-2.83-5.09-2.83-8.8,0-16.3,4.8-23.91,4.8-2.09,0-3.73-.89-3.73-3.69,0-2.01,1.76-4.27,5.19-5.48,8.55-2.73,16.46-2.11,24.79-4.07,10.09-2.37,4.15-11.44,8.94-17.25.84-.93,1.71-1.33,2.53-1.33,1.9,0,3.46,2.17,3.46,4.99,0,2.05-1.68,6.39-1.68,9.67,0,1.55.28,2.16,1.68,2.16,5.12,0,26.67-3.28,31.65-3.28,3.64,0,5.54,1.76,5.54,3.61Z"/>
      <path class="cls-7" d="m515.02,69.53c1.9,0,3.46,2.17,3.46,4.99,0,2.05-1.68,6.39-1.68,9.67,0,1.55.28,2.16,1.68,2.16,5.12,0,26.67-3.28,31.65-3.28,3.64,0,5.54,1.76,5.54,3.61,0,1.69-1.59,3.47-4.91,4.04-6.92,1.19-34.09.65-36.32,5.49-2.25,4.9-5.62,29.43-6.8,36.8-3.04,19.06-7.28,44.76-7.28,58.99,0,2.77.32,5.63.32,8.48,0,2.39-.75,4.62-3.44,4.62-4.39,0-4.54-5.54-4.54-8.79v-1.17c0-28.35,13.61-92.07,13.61-95.78,0-2.57-2.23-2.83-5.09-2.83-8.8,0-16.3,4.8-23.91,4.8-2.09,0-3.73-.89-3.73-3.69,0-2.01,1.76-4.27,5.19-5.48,8.55-2.73,16.46-2.11,24.79-4.07,10.09-2.37,4.15-11.44,8.94-17.25.84-.93,1.71-1.33,2.53-1.33m0-5c-2.29,0-4.5,1.06-6.24,2.98l-.08.08-.07.09c-2.93,3.55-3.22,7.69-3.44,10.71-.29,4.11-.4,4.29-2.78,4.85-3.31.78-6.61,1.11-10.1,1.47-4.8.49-9.75,1-15.08,2.7l-.07.02-.07.02c-5.18,1.82-8.53,5.82-8.53,10.19,0,5.2,3.51,8.69,8.73,8.69,4.42,0,8.55-1.27,12.55-2.49,3.8-1.16,7.39-2.26,11.11-2.31-.42,2.5-1.17,6.57-1.95,10.79-3.96,21.51-11.32,61.54-11.32,82.81v1.17c0,2.34.11,4.83.87,7.17,1.36,4.14,4.6,6.62,8.67,6.62s8.44-2.52,8.44-9.62c0-1.57-.09-3.1-.17-4.58-.08-1.37-.15-2.67-.15-3.9,0-13.02,3.71-36.22,6.69-54.87l.53-3.34c.21-1.3.48-3.14.81-5.31,1.14-7.56,3.72-24.66,5.31-29.46,3.46-1.56,15.95-2.22,22.1-2.55,4.74-.25,8.48-.45,10.81-.85,6.26-1.08,9.06-5.28,9.06-8.96,0-4.28-3.62-8.61-10.54-8.61-2.59,0-7.86.63-16.24,1.66-4.04.5-8.44,1.04-11.63,1.35.12-.55.26-1.1.38-1.63.45-1.85.83-3.44.83-4.94,0-5.6-3.72-9.99-8.46-9.99h0Z"/>
    </g>
    <g>
      <path class="cls-2" d="m555.59,143.69c0,1.12-.49,2.35-1.59,3.41-3.55,3.44-7.93,6.31-11.39,9.78-8.6,8.63-4.07,15.39-10.23,27.42-3.91,7.61-12.83,17.93-22.64,17.93-3.74,0-4.95-2.41-4.95-5.43,0-17.45,20.89-28.72,20.89-39.37,0-4.85-5.06-11.29-5.06-22.21,0-7.32,4.3-19.46,13.63-19.46,3.64,0,6.39,3.67,6.39,8.78,0,2.65-.8,5.38-3.39,5.38-2.74,0-3.87-4.67-5.34-4.67-2.62,0-3.71,9.33-3.71,11.62,0,4.32,1.5,15.23,6.38,15.23,5.99,0,14.51-11.95,17.42-11.95,2.17,0,3.58,1.62,3.58,3.53Zm-41.78,49.35c3.88,0,13.47-12.52,13.47-17.42,0-.93-.33-2.21-1.14-2.21-2.73,0-12.68,15.85-12.68,19.19,0,.28.11.44.35.44Z"/>
      <path class="cls-3" d="m534.26,115.76c3.64,0,6.39,3.67,6.39,8.78,0,2.65-.8,5.38-3.39,5.38-2.74,0-3.87-4.67-5.34-4.67-2.62,0-3.71,9.33-3.71,11.62,0,4.32,1.5,15.23,6.38,15.23,5.99,0,14.51-11.95,17.42-11.95,2.17,0,3.58,1.62,3.58,3.53,0,1.12-.49,2.35-1.59,3.41-3.55,3.44-7.93,6.31-11.39,9.78-8.6,8.63-4.07,15.39-10.23,27.42-3.91,7.61-12.83,17.93-22.64,17.93-3.74,0-4.95-2.41-4.95-5.43,0-17.45,20.89-28.72,20.89-39.37,0-4.85-5.06-11.29-5.06-22.21,0-7.32,4.3-19.46,13.63-19.46m-20.45,77.28c3.88,0,13.47-12.52,13.47-17.42,0-.93-.33-2.21-1.14-2.21-2.73,0-12.68,15.85-12.68,19.19,0,.28.11.44.35.44m20.45-82.28c-12.71,0-18.63,14.59-18.63,24.46,0,7.44,2.07,13.06,3.59,17.17.76,2.05,1.47,3.99,1.47,5.04,0,2.85-3.74,7.31-7.36,11.62-6.03,7.19-13.53,16.13-13.53,27.75,0,6.34,3.9,10.43,9.95,10.43,13.01,0,23.15-12.98,27.09-20.64,3.05-5.95,3.81-10.86,4.42-14.8.71-4.6,1.19-7.64,4.9-11.37,1.6-1.61,3.49-3.12,5.49-4.72,1.95-1.56,3.97-3.18,5.84-4.99,2-1.93,3.11-4.42,3.11-7.01,0-4.78-3.77-8.53-8.58-8.53-3.17,0-5.6,2.28-9.27,5.74-1.71,1.61-5.47,5.15-7.49,6.01-.97-1.7-2.03-6.27-2.03-10.04,0-.71.11-1.82.28-2.99,1.04.62,2.29,1.03,3.77,1.03,4.18,0,8.39-3.21,8.39-10.38,0-7.86-4.9-13.78-11.39-13.78h0Zm-21.27,77.41h0s0,0,0,0h0Z"/>
    </g>
    <g>
      <path class="cls-2" d="m572.27,154.53c0,2.1-2.49,5.51-5.85,5.51-2.44,0-4.22-2.06-4.22-4.39,0-2.64,2.93-5.31,5.81-5.31,2.52,0,4.26,1.95,4.26,4.19Z"/>
      <path class="cls-11" d="m568,150.34c2.52,0,4.26,1.95,4.26,4.19,0,2.1-2.49,5.51-5.85,5.51-2.44,0-4.22-2.06-4.22-4.39,0-2.64,2.93-5.31,5.81-5.31m0-5c-5.66,0-10.81,4.91-10.81,10.31s4.14,9.39,9.22,9.39c6.11,0,10.85-5.65,10.85-10.51,0-5.15-4.07-9.19-9.26-9.19h0Z"/>
    </g>
    <g>
      <path class="cls-2" d="m637.11,137.28c2.14,0,3.5,1.71,3.5,3.56,0,.74-.22,1.51-.7,2.19-3.51,5.01-10.27,6-16.45,6-4.06,0-7.87-.43-10.34-.43-1.56,0-2.59.17-2.81.73-2.69,6.77-11.81,15-20.01,15-6.22,0-10.18-4.54-10.18-9.77,0-6.32,4.64-12.92,8.15-17.11,1.06-1.13,2.49-2.03,3.92-2.03,2.3,0,3.22,1.54,3.22,3.3,0,1.04-.32,2.15-.86,3.06-1.72,2.58-6.9,8.18-6.9,12.06,0,1.8,1.23,2.76,2.79,2.76,6.02,0,14.21-8.27,14.21-13.64,0-1.62-.79-3.16-2.82-4.42-2.37-1.47-5.77-2.78-5.77-5.61,0-3.12,2.75-4.77,5.46-4.77,1.93,0,3.98.66,5.39,1.67,5.01,3.57,4.02,12.85,12.83,12.85,5.35,0,10.9-2.47,14.68-4.6.99-.56,1.89-.79,2.69-.79Z"/>
      <path class="cls-16" d="m601.52,128.16c1.93,0,3.98.66,5.39,1.67,5.01,3.57,4.02,12.85,12.83,12.85,5.35,0,10.9-2.47,14.68-4.6.99-.56,1.89-.79,2.69-.79,2.14,0,3.5,1.71,3.5,3.56,0,.74-.22,1.51-.7,2.19-3.51,5.01-10.27,6-16.45,6-4.06,0-7.87-.43-10.34-.43-1.56,0-2.59.17-2.81.73-2.69,6.77-11.81,15-20.01,15-6.22,0-10.18-4.54-10.18-9.77,0-6.32,4.64-12.92,8.15-17.11,1.06-1.13,2.49-2.03,3.92-2.03,2.3,0,3.22,1.54,3.22,3.3,0,1.04-.32,2.15-.86,3.06-1.72,2.58-6.9,8.18-6.9,12.06,0,1.8,1.23,2.76,2.79,2.76,6.02,0,14.21-8.27,14.21-13.64,0-1.62-.79-3.16-2.82-4.42-2.37-1.47-5.77-2.78-5.77-5.61,0-3.12,2.75-4.77,5.46-4.77m0-5c-5.05,0-9.04,3.01-10.16,7.3-2.41.23-4.77,1.48-6.73,3.57l-.1.1-.09.11c-6.18,7.38-9.32,14.22-9.32,20.32,0,8.42,6.53,14.77,15.18,14.77,9.32,0,19.2-7.86,23.51-15.72.82.02,1.82.09,2.94.15,2.01.12,4.28.26,6.72.26,3.67,0,14.84,0,20.55-8.13,1.05-1.5,1.6-3.25,1.6-5.06,0-4.8-3.73-8.56-8.5-8.56-1.73,0-3.46.49-5.15,1.44-4.51,2.55-8.84,3.95-12.21,3.95-2.05,0-2.54-.48-4.34-4.28-1.17-2.46-2.63-5.53-5.59-7.64-2.27-1.63-5.37-2.6-8.29-2.6h0Zm-6.2,25.95c.62-.85,1.2-1.62,1.58-2.11.71-.92,1.32-1.71,1.8-2.44l.07-.11.07-.11c.25-.43.48-.87.67-1.33.05.04.09.08.12.11-.13,1.52-2.08,4.08-4.32,5.99h0Z"/>
    </g>
    <g>
      <path class="cls-2" d="m638.95,123.84c1.81,0,3.46,1.55,3.46,4.73,0,2.13-.89,4.57-.89,6.89,0,.72.13,1.21.5,1.21,2.67,0,9.11-16.06,18.69-16.06,2.59,0,4.31,1.5,4.31,3.56,0,1.36-.85,2.81-2.84,3.72-12.2,5.56-18.87,21.39-24.69,32.9-.94,1.86-2.57,2.87-4.08,2.87-1.84,0-3.49-1.5-3.49-4.75,0-7.72,2.34-14.76,3.46-22.06.66-4.37.89-13,5.58-13Z"/>
      <path class="cls-12" d="m660.71,120.62c2.59,0,4.31,1.5,4.31,3.56,0,1.36-.85,2.81-2.84,3.72-12.2,5.56-18.87,21.39-24.69,32.9-.94,1.86-2.57,2.87-4.08,2.87-1.84,0-3.49-1.5-3.49-4.75,0-7.72,2.34-14.76,3.46-22.06.66-4.37.89-13,5.58-13,1.81,0,3.46,1.55,3.46,4.73,0,2.13-.89,4.57-.89,6.89,0,.72.13,1.21.5,1.21,2.67,0,9.11-16.06,18.69-16.06m0-5c-6.04,0-10.72,3.86-14.32,8.05-1.51-3.19-4.49-4.83-7.43-4.83-2.3,0-6.49.92-8.66,7.05-.94,2.66-1.31,5.73-1.6,8.2-.09.74-.17,1.44-.26,2.01-.36,2.33-.85,4.65-1.37,7.1-1.05,4.96-2.14,10.09-2.14,15.71,0,6.4,4.27,9.75,8.49,9.75,3.51,0,6.78-2.15,8.54-5.61.63-1.25,1.27-2.55,1.93-3.88,5.2-10.54,11.1-22.5,20.37-26.72,3.61-1.64,5.77-4.73,5.77-8.27,0-4.88-4-8.56-9.31-8.56h0Z"/>
    </g>
    <g>
      <path class="cls-2" d="m689.48,175.03c3.59-3.59,7.45-26.38,7.45-30.26,0-.6,0-1.11-.34-1.11-2.53,0-12.25,14.33-22.4,14.33-5.82,0-10.31-4.52-10.31-10.07,0-12.07,15.7-26.43,26.78-26.43,3.5,0,4.65,2.42,6.83,2.42,1.49,0,5.07-3.02,6.66-3.02,1.98,0,3.41,3.07,3.41,5.83,0,18.93-6.34,35.45-6.34,42.65,0,2.05.91,2.62,2.27,2.62,1.66,0,16.03-1.63,18.2-1.63,1.91,0,4.65,1.22,4.65,3.62,0,7.72-27.55,1.42-29.38,11.58-3.75,20.91-15.15,55.48-35.7,55.48-10.02,0-12.36-9.17-12.36-17.05,0-19.47,15.19-35.03,26.38-41.36,4.21-2.38,10.96-4.35,14.2-7.6Zm-2.69,10.52c-9.09,0-30.8,23.42-30.8,39.41,0,4.41,1.2,8.46,5.24,8.46,12.16,0,27.14-39.18,27.14-45.72,0-1.56-.61-2.14-1.58-2.14Zm6.51-52.5c0-2.03-1.75-3.18-3.41-3.18-7.42,0-18.49,11.06-18.49,17.71,0,1.91,1.07,2.66,2.58,2.66,5.43,0,19.32-10.97,19.32-17.19Z"/>
      <path class="cls-6" d="m704.16,120.89c1.98,0,3.41,3.07,3.41,5.83,0,18.93-6.34,35.45-6.34,42.65,0,2.05.91,2.62,2.27,2.62,1.66,0,16.03-1.63,18.2-1.63,1.91,0,4.65,1.22,4.65,3.62,0,7.72-27.55,1.42-29.38,11.58-3.75,20.91-15.15,55.48-35.7,55.48-10.02,0-12.36-9.17-12.36-17.05,0-19.47,15.19-35.03,26.38-41.36,4.21-2.38,10.96-4.35,14.2-7.6,3.59-3.59,7.45-26.38,7.45-30.26,0-.6,0-1.11-.34-1.11-2.53,0-12.25,14.33-22.4,14.33-5.82,0-10.31-4.52-10.31-10.07,0-12.07,15.7-26.43,26.78-26.43,3.5,0,4.65,2.42,6.83,2.42,1.49,0,5.07-3.02,6.66-3.02m-30.18,29.35c5.43,0,19.32-10.97,19.32-17.19,0-2.03-1.75-3.18-3.41-3.18-7.42,0-18.49,11.06-18.49,17.71,0,1.91,1.07,2.66,2.58,2.66m-12.75,83.18c12.16,0,27.14-39.18,27.14-45.72,0-1.56-.61-2.14-1.58-2.14-9.09,0-30.8,23.42-30.8,39.41,0,4.41,1.2,8.46,5.24,8.46m42.93-117.52c-2.18,0-4.11,1.14-5.98,2.24-.23.13-.5.3-.76.45-1.33-.82-3.49-2.09-6.76-2.09-6.58,0-14.43,3.77-21.01,10.08-6.85,6.57-10.77,14.36-10.77,21.35,0,8.31,6.87,15.07,15.31,15.07,6.17,0,11.69-3.56,16.14-7.34-1.3,6.66-3.13,14.07-4.46,15.92-1.47,1.41-4.66,2.81-7.47,4.04-1.91.84-3.88,1.7-5.58,2.66-6.96,3.94-13.87,10.19-18.96,17.15-6.51,8.92-9.96,18.79-9.96,28.56,0,13.81,6.49,22.05,17.36,22.05,28.49,0,38.84-49.64,40.62-59.6.03-.19.68-.75,2.44-1.29,2.63-.8,6.29-1.13,9.82-1.45,3.56-.32,6.93-.62,9.71-1.41,6.5-1.85,7.48-6,7.48-8.32,0-5.33-5.01-8.62-9.65-8.62-1.31,0-4.87.35-10.58.92-1.45.15-3.18.32-4.63.46.34-2.2.98-5.05,1.69-8.2,1.85-8.25,4.39-19.56,4.39-31.82,0-5.32-3.14-10.83-8.41-10.83h0Zm-25.65,27.19c.74-1.03,1.68-2.15,2.84-3.27,1.88-1.83,3.73-3.13,5.3-3.93-.95,1.21-2.34,2.71-4.28,4.35-1.38,1.16-2.69,2.11-3.86,2.85h0Zm-17.05,85.31c-.2-.49-.47-1.56-.47-3.43,0-5.88,4.15-14.5,10.83-22.49,3.92-4.69,7.57-7.85,10.35-9.73-1.36,4.43-3.84,11.12-7.36,18.2-6.78,13.61-11.7,17.13-13.34,17.45h0Z"/>
    </g>
  </g>
</svg>