<?xml version="1.0" encoding="UTF-8"?>
<svg id="Layer_1" data-name="Layer 1" xmlns="http://www.w3.org/2000/svg" xmlns:xlink="http://www.w3.org/1999/xlink" viewBox="0 0 613 201.5">
  <defs>
    <style>
      .cls-1 {
        fill: url(#linear-gradient-2);
      }

      .cls-2 {
        fill: #fff;
      }

      .cls-3 {
        fill: url(#linear-gradient-6);
      }

      .cls-4 {
        clip-path: url(#clippath-2);
      }

      .cls-5 {
        clip-path: url(#clippath-1);
      }

      .cls-6 {
        fill: url(#linear-gradient-10);
      }

      .cls-7 {
        fill: url(#linear-gradient-5);
      }

      .cls-8 {
        clip-path: url(#clippath);
      }

      .cls-9, .cls-10 {
        fill: none;
      }

      .cls-11 {
        fill: url(#linear-gradient-7);
      }

      .cls-12 {
        fill: url(#linear-gradient-9);
      }

      .cls-13 {
        fill: url(#linear-gradient-3);
      }

      .cls-14 {
        fill: url(#linear-gradient);
      }

      .cls-10 {
        stroke: #000;
        stroke-miterlimit: 10;
        stroke-width: .07px;
      }

      .cls-15 {
        fill: url(#linear-gradient-4);
      }

      .cls-16 {
        fill: url(#linear-gradient-8);
      }
    </style>
    <clipPath id="clippath">
      <rect class="cls-9" x="9.78" y="25.86" width="135.22" height="135.22"/>
    </clipPath>
    <clipPath id="clippath-1">
      <polygon class="cls-9" points="118.22 52.77 35.63 52.77 16.43 72.65 62.72 140.8 92.26 140.85 139.04 73.73 118.22 52.77"/>
    </clipPath>
    <linearGradient id="linear-gradient" x1="-225.07" y1="-433.79" x2="-224.94" y2="-433.79" gradientTransform="translate(296011.54 153595.55) rotate(90) scale(682.21 -682.21)" gradientUnits="userSpaceOnUse">
      <stop offset="0" stop-color="#ff3f75"/>
      <stop offset=".07" stop-color="#ff3f75"/>
      <stop offset=".62" stop-color="#ff0031"/>
      <stop offset="1" stop-color="#ff0031"/>
    </linearGradient>
    <clipPath id="clippath-2">
      <rect class="cls-9" x="9.78" y="25.86" width="135.22" height="135.22"/>
    </clipPath>
    <linearGradient id="linear-gradient-2" x1="224.28" y1="65.33" x2="224.28" y2="118.37" gradientUnits="userSpaceOnUse">
      <stop offset="0" stop-color="#333" stop-opacity=".7"/>
      <stop offset=".23" stop-color="#212121" stop-opacity=".8"/>
      <stop offset=".67" stop-color="#080808" stop-opacity=".95"/>
      <stop offset="1" stop-color="#000"/>
    </linearGradient>
    <linearGradient id="linear-gradient-3" x1="267.5" y1="58.57" x2="267.5" y2="197.19" xlink:href="#linear-gradient-2"/>
    <linearGradient id="linear-gradient-4" x1="335.05" x2="335.05" xlink:href="#linear-gradient-2"/>
    <linearGradient id="linear-gradient-5" x1="377.96" y1="6.7" x2="377.96" y2="160.27" xlink:href="#linear-gradient-2"/>
    <linearGradient id="linear-gradient-6" x1="393.52" y1="52.93" x2="393.52" y2="157.39" xlink:href="#linear-gradient-2"/>
    <linearGradient id="linear-gradient-7" x1="430.56" y1="87.5" x2="430.56" y2="115.2" xlink:href="#linear-gradient-2"/>
    <linearGradient id="linear-gradient-8" x1="473.7" y1="65.32" x2="473.7" y2="119.5" xlink:href="#linear-gradient-2"/>
    <linearGradient id="linear-gradient-9" x1="510.8" y1="57.79" x2="510.8" y2="118.82" xlink:href="#linear-gradient-2"/>
    <linearGradient id="linear-gradient-10" x1="550.96" y1="58.06" x2="550.96" y2="196.2" xlink:href="#linear-gradient-2"/>
  </defs>
  <g class="cls-8">
    <g class="cls-5">
      <rect class="cls-14" x="16.43" y="52.77" width="122.61" height="88.08"/>
    </g>
    <g class="cls-4">
      <path d="m77.38,51.21l41.22.26c.92,0,1.81.39,2.44,1.06l19.79,20.78c.49.52.55,1.31.14,1.89l-47.57,68.12c-.34.49-.9.78-1.5.78h-14.53v-4.19h13.68s44.23-66.01,44.23-66.01c.12-.18,0-.42-.22-.43l-7.13-.34c-.15,0-.24-.17-.16-.3l2.59-4.23c.09-.14.07-.32-.04-.45l-11.07-11.91c-.35-.38-.84-.59-1.36-.59l-27.19.11c-2.94.01-5.81.82-8.33,2.33l-5,3v-9.88Z"/>
      <path class="cls-10" d="m77.38,51.21l41.22.26c.92,0,1.81.39,2.44,1.06l19.79,20.78c.49.52.55,1.31.14,1.89l-47.57,68.12c-.34.49-.9.78-1.5.78h-14.53v-4.19h13.68s44.23-66.01,44.23-66.01c.12-.18,0-.42-.22-.43l-7.13-.34c-.15,0-.24-.17-.16-.3l2.59-4.23c.09-.14.07-.32-.04-.45l-11.07-11.91c-.35-.38-.84-.59-1.36-.59l-27.19.11c-2.94.01-5.81.82-8.33,2.33l-5,3v-9.88Z"/>
      <path d="m115.87,61.01l-23.66,17.45,17.32-4.06,3.96-5.95,1.36,4.92c3.94-2.84,4.85-6.76,1.02-12.36"/>
      <path class="cls-10" d="m115.87,61.01l-23.66,17.45,17.32-4.06,3.96-5.95,1.36,4.92c3.94-2.84,4.85-6.76,1.02-12.36Z"/>
      <path d="m75.54,89.5l22.1-6.12c.36-.1.75,0,1.01.27,2.61,2.68,2.12,10.15,2.04,17.11,0,.13.18.17.23.05l8.85-20.1c.13-.29.39-.49.7-.55l12.81-2.25c.22-.04.38.2.26.39l-36.96,58.19c-.07.11-.24.06-.24-.07l-.25-8.76c0-.09-.11-.12-.16-.05l-5.72,8.65c-.07.11-.2.18-.33.18h-3.45s-.89-46.97-.89-46.97Z"/>
      <path class="cls-10" d="m75.54,89.5l22.1-6.12c.36-.1.75,0,1.01.27,2.61,2.68,2.12,10.15,2.04,17.11,0,.13.18.17.23.05l8.85-20.1c.13-.29.39-.49.7-.55l12.81-2.25c.22-.04.38.2.26.39l-36.96,58.19c-.07.11-.24.06-.24-.07l-.25-8.76c0-.09-.11-.12-.16-.05l-5.72,8.65c-.07.11-.2.18-.33.18h-3.45s-.89-46.97-.89-46.97Z"/>
      <path d="m77.38,51.21l-41.22.26c-.92,0-1.81.39-2.44,1.06l-19.79,20.78c-.49.52-.55,1.31-.14,1.89l47.57,68.12c.34.49.9.78,1.5.78h14.53v-4.19h-13.68S19.47,73.91,19.47,73.91c-.12-.18,0-.42.22-.43l7.13-.34c.15,0,.24-.17.16-.3l-2.59-4.23c-.09-.14-.07-.32.04-.45l11.07-11.91c.35-.38.84-.59,1.36-.59l27.19.11c2.94.01,5.81.82,8.33,2.33l5,3v-9.88Z"/>
      <path class="cls-10" d="m77.38,51.21l-41.22.26c-.92,0-1.81.39-2.44,1.06l-19.79,20.78c-.49.52-.55,1.31-.14,1.89l47.57,68.12c.34.49.9.78,1.5.78h14.53v-4.19h-13.68S19.47,73.91,19.47,73.91c-.12-.18,0-.42.22-.43l7.13-.34c.15,0,.24-.17.16-.3l-2.59-4.23c-.09-.14-.07-.32.04-.45l11.07-11.91c.35-.38.84-.59,1.36-.59l27.19.11c2.94.01,5.81.82,8.33,2.33l5,3v-9.88Z"/>
      <path d="m38.9,61.01l23.66,17.45-17.32-4.06-3.96-5.95-1.36,4.92c-3.94-2.84-4.85-6.76-1.02-12.36"/>
      <path class="cls-10" d="m38.9,61.01l23.66,17.45-17.32-4.06-3.96-5.95-1.36,4.92c-3.94-2.84-4.85-6.76-1.02-12.36Z"/>
      <path d="m79.23,89.5l-22.1-6.12c-.36-.1-.75,0-1.01.27-2.61,2.68-2.12,10.15-2.04,17.11,0,.13-.18.17-.23.05l-8.85-20.1c-.13-.29-.39-.49-.7-.55l-12.81-2.25c-.22-.04-.38.2-.26.39l36.96,58.19c.07.11.24.06.24-.07l.25-8.76c0-.09.11-.12.16-.05l5.72,8.65c.07.11.2.18.33.18h3.45s.89-46.97.89-46.97Z"/>
      <path class="cls-10" d="m79.23,89.5l-22.1-6.12c-.36-.1-.75,0-1.01.27-2.61,2.68-2.12,10.15-2.04,17.11,0,.13-.18.17-.23.05l-8.85-20.1c-.13-.29-.39-.49-.7-.55l-12.81-2.25c-.22-.04-.38.2-.26.39l36.96,58.19c.07.11.24.06.24-.07l.25-8.76c0-.09.11-.12.16-.05l5.72,8.65c.07.11.2.18.33.18h3.45s.89-46.97.89-46.97Z"/>
    </g>
  </g>
  <g>
    <g>
      <path class="cls-2" d="m254.95,83.77c1.77,0,3.55,1.84,3.55,3.58,0,1.27-.71,2.55-1.73,3.57-4.53,4.48-19.76,18.45-29.39,18.45-3.43,0-6.15-1.77-7.43-6.37-.57-2.04-.01-8.35-1.95-8.35-1.56,0-4.01,3.34-4.8,4.18-2.98,3.16-11.62,10.34-17.49,10.34-3.41,0-5.66-3.05-5.66-7.52,0-8.99,8.92-23.29,18.69-23.29,4.6,0,7.06,3.62,8.91,3.62,3.06,0,4.68-7.66,8.45-7.66,2.18,0,3.59,1.96,3.59,3.98,0,6.04-3.11,11-3.11,18.14,0,2.26.08,5.24,2.23,5.24,8.01,0,17.4-11.08,22.17-15.85,1.12-1.12,2.52-2.06,3.95-2.06Zm-57.02,15.67c0,.56.14.88.72.88,3.01,0,13.06-8.99,13.06-11.83,0-1.14-1.54-1.87-3.14-1.87-4.53,0-10.63,8.02-10.63,12.82Z"/>
      <path class="cls-1" d="m226.11,74.33c2.18,0,3.59,1.96,3.59,3.98,0,6.04-3.11,11-3.11,18.14,0,2.26.08,5.24,2.23,5.24,8.01,0,17.4-11.08,22.17-15.85,1.12-1.12,2.52-2.06,3.95-2.06,1.77,0,3.55,1.84,3.55,3.58,0,1.27-.71,2.55-1.73,3.57-4.53,4.48-19.76,18.45-29.39,18.45-3.43,0-6.15-1.77-7.43-6.37-.57-2.04-.01-8.35-1.95-8.35-1.56,0-4.01,3.34-4.8,4.18-2.98,3.16-11.62,10.34-17.49,10.34-3.41,0-5.66-3.05-5.66-7.52,0-8.99,8.92-23.29,18.69-23.29,4.6,0,7.06,3.62,8.91,3.62,3.06,0,4.68-7.66,8.45-7.66m-27.46,25.99c3.01,0,13.06-8.99,13.06-11.83,0-1.14-1.54-1.87-3.14-1.87-4.53,0-10.63,8.02-10.63,12.82,0,.56.14.88.72.88m27.46-34.99c-4.95,0-8.22,2.9-10.3,5.51-1.91-.82-4.26-1.46-7.05-1.46-7.41,0-14.61,4.24-20.27,11.94-4.65,6.33-7.43,13.94-7.43,20.34,0,9.57,6.16,16.52,14.66,16.52,6.46,0,13.1-3.99,17.76-7.58,2.99,4.95,7.92,7.79,13.91,7.79,13.04,0,29.33-14.73,35.72-21.06,2.85-2.85,4.4-6.38,4.4-9.97,0-6.7-5.87-12.58-12.55-12.58-3.69,0-7.26,1.63-10.33,4.72-.69.69-1.46,1.49-2.27,2.33-1.43,1.49-3.08,3.21-4.82,4.85.62-2.5,1.17-5.26,1.17-8.36,0-7.16-5.65-12.98-12.59-12.98h0Z"/>
    </g>
    <g>
      <path class="cls-2" d="m255.45,79.29c1.87,0,3.67,1.4,3.67,3.93,0,2.3-.89,5.16-.89,7.37,0,4.28,1.43,7.41,5.36,7.41,13.87,0,17.86-16.61,21.98-25.41.83-1.76,2.41-5.02,4.7-5.02,3.19,0,3.81,4.15,3.81,7.77,0,14.71-5.17,38.68-5.17,41.37,0,1.56.41,1.99,1.36,1.99s3.03-.61,5.37-.61c3.07,0,4.58,1.76,4.58,3.58,0,1.45-.97,2.93-2.88,3.57-6.67,2.2-10.4-1.55-13.12,8.71-.99,3.72-1.58,7.68-2.59,11.56-4.07,15.38-13.83,42.68-33.28,42.68-9.03,0-13.55-6.64-13.55-16.3,0-23.72,19.57-41.34,37.92-48.34,9.8-3.68,10.87-23.66,10.87-26.77,0-.78-.09-1.66-.37-1.66-.52,0-10.02,11.02-19.72,11.02-7.59,0-12.95-6.62-12.95-16,0-2.83.43-5.03,1-7.47.59-2.31,2.28-3.38,3.91-3.38Zm19.52,51.17c-8.96,0-32.66,23.45-32.66,40.52,0,5.43,2.2,9.4,6.17,9.4,16.52,0,28.45-37.32,28.45-47.25,0-1.95-.77-2.68-1.95-2.68Z"/>
      <path class="cls-13" d="m290.27,67.57c3.19,0,3.81,4.15,3.81,7.77,0,14.71-5.17,38.68-5.17,41.37,0,1.56.41,1.99,1.36,1.99s3.03-.61,5.37-.61c3.07,0,4.58,1.76,4.58,3.58,0,1.45-.97,2.93-2.88,3.57-6.67,2.2-10.4-1.55-13.12,8.71-.99,3.72-1.58,7.68-2.59,11.56-4.07,15.38-13.83,42.68-33.28,42.68-9.03,0-13.55-6.64-13.55-16.3,0-23.72,19.57-41.34,37.92-48.34,9.8-3.68,10.87-23.66,10.87-26.77,0-.78-.09-1.66-.37-1.66-.52,0-10.02,11.02-19.72,11.02-7.59,0-12.95-6.62-12.95-16,0-2.83.43-5.03,1-7.47.59-2.31,2.28-3.38,3.91-3.38,1.87,0,3.67,1.4,3.67,3.93,0,2.3-.89,5.16-.89,7.37,0,4.28,1.43,7.41,5.36,7.41,13.87,0,17.86-16.61,21.98-25.41.83-1.76,2.41-5.02,4.7-5.02m-41.79,112.81c16.52,0,28.45-37.32,28.45-47.25,0-1.95-.77-2.68-1.95-2.68-8.96,0-32.66,23.45-32.66,40.52,0,5.43,2.2,9.4,6.17,9.4m41.79-121.81c-8.04,0-11.65,7.66-12.84,10.18-.79,1.69-1.52,3.48-2.29,5.37-2.74,6.75-4.89,11.14-7.42,13.29.21-1.29.4-2.7.4-4.19,0-7.25-5.56-12.93-12.67-12.93-6,0-11.07,4.07-12.63,10.14l-.02.08-.02.08c-.6,2.55-1.25,5.59-1.25,9.55,0,6.69,1.95,12.63,5.64,17.19,4.08,5.04,9.88,7.82,16.32,7.82,2.46,0,4.83-.42,7.08-1.11-.49.71-.86,1.03-1.02,1.09-21.8,8.31-43.76,29.07-43.76,56.76,0,6.93,1.84,12.93,5.32,17.35,4.04,5.13,10.16,7.96,17.23,7.96,8.15,0,19.98-3.45,30.07-19.86,4.77-7.76,8.78-17.69,11.9-29.52.57-2.18,1-4.26,1.41-6.27.38-1.88.75-3.65,1.18-5.27.13-.47.24-.86.34-1.18,1.76-.15,4.1-.38,6.9-1.3,5.43-1.8,9.06-6.67,9.06-12.12,0-6.04-4.14-10.83-10.08-12.19,1.58-9.27,3.94-23.63,3.94-34.14,0-15.97-10.67-16.77-12.81-16.77h0Zm-38.92,111.47c.43-4.94,4.09-11.98,9.76-18.7,1.12-1.33,2.24-2.55,3.32-3.66-1,2.87-2.22,5.92-3.65,8.92-3.5,7.33-6.92,11.5-9.42,13.43h0Z"/>
    </g>
    <g>
      <path class="cls-2" d="m365.72,83.77c1.77,0,3.55,1.84,3.55,3.58,0,1.27-.71,2.55-1.73,3.57-4.53,4.48-19.76,18.45-29.39,18.45-3.43,0-6.15-1.77-7.43-6.37-.57-2.04-.01-8.35-1.95-8.35-1.56,0-4.01,3.34-4.8,4.18-2.98,3.16-11.62,10.34-17.49,10.34-3.41,0-5.66-3.05-5.66-7.52,0-8.99,8.92-23.29,18.69-23.29,4.6,0,7.06,3.62,8.91,3.62,3.06,0,4.68-7.66,8.45-7.66,2.18,0,3.59,1.96,3.59,3.98,0,6.04-3.11,11-3.11,18.14,0,2.26.08,5.24,2.23,5.24,8.01,0,17.4-11.08,22.17-15.85,1.12-1.12,2.53-2.06,3.95-2.06Zm-57.02,15.67c0,.56.14.88.72.88,3.01,0,13.06-8.99,13.06-11.83,0-1.14-1.54-1.87-3.14-1.87-4.53,0-10.63,8.02-10.63,12.82Z"/>
      <path class="cls-15" d="m336.88,74.33c2.18,0,3.59,1.96,3.59,3.98,0,6.04-3.11,11-3.11,18.14,0,2.26.08,5.24,2.23,5.24,8.01,0,17.4-11.08,22.17-15.85,1.12-1.12,2.53-2.06,3.95-2.06,1.77,0,3.55,1.84,3.55,3.58,0,1.27-.71,2.55-1.73,3.57-4.53,4.48-19.76,18.45-29.39,18.45-3.43,0-6.15-1.77-7.43-6.37-.57-2.04-.01-8.35-1.95-8.35-1.56,0-4.01,3.34-4.8,4.18-2.98,3.16-11.62,10.34-17.49,10.34-3.41,0-5.66-3.05-5.66-7.52,0-8.99,8.92-23.29,18.69-23.29,4.6,0,7.06,3.62,8.91,3.62,3.06,0,4.68-7.66,8.45-7.66m-27.46,25.99c3.01,0,13.06-8.99,13.06-11.83,0-1.14-1.54-1.87-3.14-1.87-4.53,0-10.63,8.02-10.63,12.82,0,.56.14.88.72.88m27.46-34.99c-4.95,0-8.22,2.9-10.3,5.51-1.91-.82-4.26-1.46-7.05-1.46-7.41,0-14.61,4.24-20.27,11.94-4.65,6.33-7.43,13.94-7.43,20.34,0,9.57,6.16,16.52,14.66,16.52,6.46,0,13.1-3.99,17.76-7.58,2.99,4.95,7.92,7.79,13.91,7.79,13.04,0,29.33-14.73,35.72-21.06,2.85-2.85,4.4-6.38,4.4-9.97,0-6.7-5.87-12.58-12.55-12.58-3.69,0-7.26,1.63-10.33,4.71-.69.69-1.46,1.49-2.27,2.33-1.43,1.49-3.08,3.21-4.82,4.85.62-2.5,1.17-5.25,1.17-8.36,0-7.16-5.65-12.98-12.59-12.98h0Z"/>
    </g>
    <g>
      <path class="cls-2" d="m419.01,32.85c0,1.69-1.59,3.47-4.91,4.04-6.92,1.19-34.09.65-36.32,5.49-2.25,4.9-5.62,29.43-6.8,36.8-3.04,19.06-7.28,44.76-7.28,58.99,0,2.77.32,5.63.32,8.48,0,2.39-.75,4.62-3.44,4.62-4.39,0-4.54-5.54-4.54-8.79v-1.17c0-28.35,13.61-92.07,13.61-95.78,0-2.57-2.23-2.83-5.09-2.83-8.8,0-16.3,4.8-23.91,4.8-2.09,0-3.73-.89-3.73-3.69,0-2.01,1.76-4.27,5.19-5.48,8.55-2.73,16.46-2.11,24.79-4.07,10.09-2.37,4.15-11.44,8.94-17.25.84-.93,1.71-1.33,2.53-1.33,1.9,0,3.46,2.17,3.46,4.99,0,2.05-1.68,6.39-1.68,9.67,0,1.55.28,2.16,1.68,2.16,5.12,0,26.67-3.28,31.65-3.28,3.64,0,5.54,1.76,5.54,3.61Z"/>
      <path class="cls-7" d="m378.35,15.7c1.9,0,3.46,2.17,3.46,4.99,0,2.05-1.68,6.39-1.68,9.67,0,1.55.28,2.16,1.68,2.16,5.12,0,26.67-3.28,31.65-3.28,3.64,0,5.54,1.76,5.54,3.61,0,1.69-1.59,3.47-4.91,4.04-6.92,1.19-34.09.65-36.32,5.49-2.25,4.9-5.62,29.43-6.8,36.8-3.04,19.06-7.28,44.76-7.28,58.99,0,2.77.32,5.63.32,8.48,0,2.39-.75,4.62-3.44,4.62-4.39,0-4.54-5.54-4.54-8.79v-1.17c0-28.35,13.61-92.07,13.61-95.78,0-2.57-2.23-2.83-5.09-2.83-8.8,0-16.3,4.8-23.91,4.8-2.09,0-3.73-.89-3.73-3.69,0-2.01,1.76-4.27,5.19-5.48,8.55-2.73,16.46-2.11,24.79-4.07,10.09-2.37,4.15-11.44,8.94-17.25.84-.93,1.71-1.33,2.53-1.33m0-9c-3.43,0-6.7,1.53-9.21,4.29l-.14.15-.13.16c-3.74,4.54-4.1,9.61-4.34,12.97-.03.41-.06.9-.11,1.34-2.94.66-5.98.97-9.19,1.3-4.77.49-10.17,1.04-15.88,2.87l-.12.04-.12.04c-6.81,2.39-11.2,7.87-11.2,13.97,0,7.47,5.24,12.69,12.73,12.69,5.02,0,9.64-1.42,13.72-2.67,1.73-.53,3.41-1.04,5.05-1.44-.31,1.7-.65,3.55-.98,5.37-3.98,21.63-11.39,61.9-11.39,83.54v1.17c0,2.54.13,5.53,1.07,8.42,1.89,5.78,6.67,9.37,12.47,9.37s12.44-4.26,12.44-13.62c0-1.69-.09-3.27-.18-4.81-.07-1.31-.14-2.55-.14-3.67,0-12.7,3.84-36.71,6.64-54.24l.53-3.34c.21-1.31.49-3.16.82-5.34.91-6.02,3.1-20.59,4.62-26.84,4.5-.99,14.08-1.5,19.05-1.76,4.87-.26,8.72-.46,11.28-.9,8.55-1.47,12.38-7.54,12.38-12.91,0-6.11-5.09-12.61-14.54-12.61-2.82,0-8.2.64-16.73,1.69-1.88.23-4.01.49-6.07.74.09-.66.14-1.31.14-1.98,0-7.85-5.48-13.99-12.46-13.99h0Z"/>
    </g>
    <g>
      <path class="cls-2" d="m418.92,89.86c0,1.12-.49,2.35-1.59,3.41-3.55,3.44-7.93,6.31-11.39,9.78-8.6,8.63-4.07,15.39-10.23,27.42-3.91,7.61-12.83,17.93-22.64,17.93-3.74,0-4.95-2.41-4.95-5.43,0-17.45,20.89-28.72,20.89-39.37,0-4.85-5.06-11.29-5.06-22.21,0-7.32,4.3-19.46,13.63-19.46,3.64,0,6.39,3.67,6.39,8.78,0,2.65-.8,5.38-3.39,5.38-2.74,0-3.87-4.67-5.34-4.67-2.62,0-3.71,9.33-3.71,11.62,0,4.32,1.5,15.23,6.38,15.23,5.99,0,14.51-11.95,17.42-11.95,2.17,0,3.58,1.62,3.58,3.53Zm-41.78,49.35c3.88,0,13.47-12.52,13.47-17.42,0-.93-.33-2.21-1.14-2.21-2.73,0-12.68,15.85-12.68,19.19,0,.28.11.44.35.44Z"/>
      <path class="cls-3" d="m397.59,61.93c3.64,0,6.39,3.67,6.39,8.78,0,2.65-.8,5.38-3.39,5.38-2.74,0-3.87-4.67-5.34-4.67-2.62,0-3.71,9.33-3.71,11.62,0,4.32,1.5,15.23,6.38,15.23,5.99,0,14.51-11.95,17.42-11.95,2.17,0,3.58,1.62,3.58,3.53,0,1.12-.49,2.35-1.59,3.41-3.55,3.44-7.93,6.31-11.39,9.78-8.6,8.63-4.07,15.39-10.23,27.42-3.91,7.61-12.83,17.93-22.64,17.93-3.74,0-4.95-2.41-4.95-5.43,0-17.45,20.89-28.72,20.89-39.37,0-4.85-5.06-11.29-5.06-22.21,0-7.32,4.3-19.46,13.63-19.46m-20.45,77.28c3.88,0,13.47-12.52,13.47-17.42,0-.93-.33-2.21-1.14-2.21-2.73,0-12.68,15.85-12.68,19.19,0,.28.11.44.35.44m20.45-86.28c-15.44,0-22.63,16.98-22.63,28.46,0,8.15,2.22,14.16,3.83,18.55.47,1.27,1.1,2.98,1.22,3.68-.3,1.75-3.97,6.12-6.42,9.03-6.45,7.68-14.47,17.24-14.47,30.32,0,8.5,5.73,14.43,13.95,14.43,14.94,0,26.29-14.34,30.64-22.82,3.34-6.52,4.16-11.79,4.82-16.02.7-4.5.99-6.36,3.78-9.16,1.45-1.45,3.25-2.9,5.16-4.43,2.02-1.62,4.11-3.3,6.12-5.24,2.78-2.69,4.32-6.2,4.32-9.88,0-7.03-5.53-12.53-12.58-12.53-1.4,0-2.66.26-3.85.72.93-2,1.49-4.43,1.49-7.34,0-10.14-6.62-17.78-15.39-17.78h0Zm3.06,32.16c.61,0,1.23-.05,1.84-.15-.51.48-1.08,1.01-1.67,1.53-.07-.45-.13-.92-.17-1.38h0Z"/>
    </g>
    <g>
      <path class="cls-2" d="m435.6,100.69c0,2.1-2.49,5.51-5.85,5.51-2.44,0-4.22-2.06-4.22-4.39,0-2.64,2.93-5.31,5.81-5.31,2.52,0,4.26,1.95,4.26,4.19Z"/>
      <path class="cls-11" d="m431.33,96.5c2.52,0,4.26,1.95,4.26,4.19,0,2.1-2.49,5.51-5.85,5.51-2.44,0-4.22-2.06-4.22-4.39,0-2.64,2.93-5.31,5.81-5.31m0-9c-7.89,0-14.81,6.69-14.81,14.31s5.93,13.39,13.22,13.39c8.5,0,14.85-7.66,14.85-14.51,0-7.27-5.95-13.19-13.26-13.19h0Z"/>
    </g>
    <g>
      <path class="cls-2" d="m500.45,83.45c2.14,0,3.5,1.71,3.5,3.56,0,.74-.22,1.51-.7,2.19-3.51,5.01-10.27,6-16.45,6-4.06,0-7.87-.43-10.34-.43-1.56,0-2.59.17-2.81.73-2.69,6.77-11.81,15-20.01,15-6.22,0-10.18-4.54-10.18-9.77,0-6.32,4.64-12.92,8.15-17.11,1.06-1.13,2.49-2.03,3.92-2.03,2.3,0,3.22,1.54,3.22,3.3,0,1.04-.32,2.15-.86,3.06-1.72,2.58-6.9,8.18-6.9,12.06,0,1.8,1.23,2.76,2.79,2.76,6.02,0,14.21-8.27,14.21-13.64,0-1.62-.79-3.16-2.82-4.42-2.37-1.47-5.77-2.78-5.77-5.61,0-3.12,2.75-4.77,5.46-4.77,1.93,0,3.98.66,5.39,1.67,5.01,3.57,4.02,12.85,12.83,12.85,5.35,0,10.9-2.47,14.68-4.6.99-.56,1.89-.79,2.69-.79Z"/>
      <path class="cls-16" d="m464.86,74.32c1.93,0,3.98.66,5.39,1.67,5.01,3.57,4.02,12.85,12.83,12.85,5.35,0,10.9-2.47,14.68-4.6.99-.56,1.89-.79,2.69-.79,2.14,0,3.5,1.71,3.5,3.56,0,.74-.22,1.51-.7,2.19-3.51,5.01-10.27,6-16.45,6-4.06,0-7.87-.43-10.34-.43-1.56,0-2.59.17-2.81.73-2.69,6.77-11.81,15-20.01,15-6.22,0-10.18-4.54-10.18-9.77,0-6.32,4.64-12.92,8.15-17.11,1.06-1.13,2.49-2.03,3.92-2.03,2.3,0,3.22,1.54,3.22,3.3,0,1.04-.32,2.15-.86,3.06-1.72,2.58-6.9,8.18-6.9,12.06,0,1.8,1.23,2.76,2.79,2.76,6.02,0,14.21-8.27,14.21-13.64,0-1.62-.79-3.16-2.82-4.42-2.37-1.47-5.77-2.78-5.77-5.61,0-3.12,2.75-4.77,5.46-4.77m0-9c-5.87,0-10.81,3.16-13.1,7.84-2.44.75-4.74,2.21-6.7,4.3l-.18.19-.17.2c-6.8,8.12-10.25,15.82-10.25,22.89,0,10.52,8.43,18.77,19.18,18.77,10.02,0,20.24-7.38,25.69-15.6.17.01.34.02.51.03,1.96.12,4.41.27,6.96.27,4.18,0,16.92,0,23.82-9.83,1.53-2.18,2.33-4.72,2.33-7.36,0-7.04-5.49-12.56-12.5-12.56-2.43,0-4.82.66-7.13,1.96-3.73,2.11-7.34,3.35-9.97,3.43-.31-.55-.71-1.38-1-1.99-1.3-2.73-3.08-6.47-6.88-9.18-2.96-2.12-6.84-3.34-10.61-3.34h0Zm11.24,38.45h0,0Z"/>
    </g>
    <g>
      <path class="cls-2" d="m502.28,70.01c1.81,0,3.46,1.55,3.46,4.73,0,2.13-.89,4.57-.89,6.89,0,.72.13,1.21.5,1.21,2.67,0,9.11-16.06,18.69-16.06,2.59,0,4.31,1.5,4.31,3.56,0,1.36-.85,2.81-2.84,3.72-12.2,5.56-18.87,21.39-24.69,32.9-.94,1.86-2.57,2.87-4.08,2.87-1.84,0-3.49-1.5-3.49-4.75,0-7.72,2.34-14.76,3.46-22.06.66-4.37.89-13,5.58-13Z"/>
      <path class="cls-12" d="m524.04,66.79c2.59,0,4.31,1.5,4.31,3.56,0,1.36-.85,2.81-2.84,3.72-12.2,5.56-18.87,21.39-24.69,32.9-.94,1.86-2.57,2.87-4.08,2.87-1.84,0-3.49-1.5-3.49-4.75,0-7.72,2.34-14.76,3.46-22.06.66-4.37.89-13,5.58-13,1.81,0,3.46,1.55,3.46,4.73,0,2.13-.89,4.57-.89,6.89,0,.72.13,1.21.5,1.21,2.67,0,9.11-16.06,18.69-16.06m0-9c-5.73,0-10.35,2.67-14.05,6.03-2.24-1.85-5.01-2.81-7.7-2.81-2.11,0-9.25.7-12.43,9.71-1.09,3.08-1.49,6.39-1.8,9.06-.08.71-.17,1.38-.24,1.88-.34,2.21-.82,4.47-1.33,6.87-1.1,5.16-2.23,10.5-2.23,16.54,0,8.93,6.43,13.75,12.49,13.75,5.03,0,9.66-2.99,12.1-7.8.64-1.27,1.29-2.58,1.95-3.92,4.66-9.45,10.47-21.22,18.44-24.85,5-2.27,8.11-6.84,8.11-11.91,0-7.04-5.84-12.56-13.31-12.56h0Z"/>
    </g>
    <g>
      <path class="cls-2" d="m552.81,121.2c3.59-3.59,7.45-26.38,7.45-30.26,0-.6,0-1.11-.34-1.11-2.53,0-12.25,14.33-22.4,14.33-5.82,0-10.31-4.52-10.31-10.07,0-12.07,15.7-26.43,26.78-26.43,3.5,0,4.65,2.42,6.83,2.42,1.49,0,5.07-3.02,6.66-3.02,1.98,0,3.41,3.07,3.41,5.83,0,18.93-6.34,35.45-6.34,42.65,0,2.05.91,2.62,2.27,2.62,1.66,0,16.03-1.63,18.2-1.63,1.91,0,4.65,1.22,4.65,3.62,0,7.72-27.55,1.42-29.38,11.58-3.75,20.91-15.15,55.48-35.7,55.48-10.02,0-12.36-9.17-12.36-17.05,0-19.47,15.19-35.03,26.38-41.36,4.21-2.38,10.96-4.35,14.2-7.6Zm-2.69,10.52c-9.09,0-30.8,23.42-30.8,39.41,0,4.41,1.2,8.46,5.24,8.46,12.16,0,27.14-39.18,27.14-45.72,0-1.56-.61-2.14-1.58-2.14Zm6.51-52.5c0-2.03-1.75-3.18-3.41-3.18-7.42,0-18.49,11.06-18.49,17.71,0,1.91,1.07,2.66,2.58,2.66,5.43,0,19.32-10.97,19.32-17.19Z"/>
      <path class="cls-6" d="m567.49,67.06c1.98,0,3.41,3.07,3.41,5.83,0,18.93-6.34,35.45-6.34,42.65,0,2.05.91,2.62,2.27,2.62,1.66,0,16.03-1.63,18.2-1.63,1.91,0,4.65,1.22,4.65,3.62,0,7.72-27.55,1.42-29.38,11.58-3.75,20.91-15.15,55.48-35.7,55.48-10.02,0-12.36-9.17-12.36-17.05,0-19.47,15.19-35.03,26.38-41.36,4.21-2.38,10.96-4.35,14.2-7.6,3.59-3.59,7.45-26.38,7.45-30.26,0-.6,0-1.11-.34-1.11-2.53,0-12.25,14.33-22.4,14.33-5.82,0-10.31-4.52-10.31-10.07,0-12.07,15.7-26.43,26.78-26.43,3.5,0,4.65,2.42,6.83,2.42,1.49,0,5.07-3.02,6.66-3.02m-30.18,29.35c5.43,0,19.32-10.97,19.32-17.19,0-2.03-1.75-3.18-3.41-3.18-7.42,0-18.49,11.06-18.49,17.71,0,1.91,1.07,2.66,2.58,2.66m-12.75,83.18c12.16,0,27.14-39.18,27.14-45.72,0-1.56-.61-2.14-1.58-2.14-9.09,0-30.8,23.42-30.8,39.41,0,4.41,1.2,8.46,5.24,8.46m42.93-121.52c-2.67,0-4.92,1.04-6.8,2.1-1.64-.77-3.87-1.5-6.69-1.5-7.7,0-16.37,4.08-23.78,11.2-7.63,7.32-12,16.16-12,24.23,0,10.51,8.66,19.07,19.31,19.07,3.59,0,6.95-.98,10.03-2.46-.52,1.92-1.04,3.51-1.5,4.47-1.26.91-4.13,2.16-5.93,2.95-2,.88-4.06,1.78-5.94,2.85-11.49,6.5-30.94,24.18-30.94,49.19,0,19.21,11.03,26.05,21.36,26.05,8.76,0,21.44-4.29,32.13-24.73,7.05-13.47,10.64-28.82,12.09-36.35,2.18-.66,6.52-1.05,9.03-1.27,3.75-.34,7.3-.66,10.44-1.55,9.64-2.73,10.38-10,10.38-12.17,0-7.8-7.09-12.62-13.65-12.62-1.39,0-4.23.26-10.25.86.2-.92.42-1.87.63-2.81,1.9-8.44,4.49-19.99,4.49-32.69,0-7.29-4.64-14.83-12.41-14.83h0Z"/>
    </g>
  </g>
</svg>